<?xml version="1.0" encoding="utf-8"?>
<!-- Generator: Adobe Illustrator 27.0.1, SVG Export Plug-In . SVG Version: 6.00 Build 0)  -->
<svg version="1.1" id="Ebene_1" xmlns="http://www.w3.org/2000/svg" xmlns:xlink="http://www.w3.org/1999/xlink" x="0px" y="0px"
	 viewBox="0 0 37 45.5" style="enable-background:new 0 0 37 45.5;" xml:space="preserve">
<style type="text/css">
	.st0{fill:#FFFFFF;}
</style>
<circle class="st0" cx="3.4" cy="25.5" r="3.4"/>
<circle class="st0" cx="10.1" cy="33.1" r="3.9"/>
<circle class="st0" cx="10.1" cy="17.8" r="3.9"/>
<path class="st0" d="M21.4,23.1L21.4,23.1c-1.5-1.2-2.4-3.1-2.4-5c0-1.6,0.6-3.2,1.7-4.4l0,0c1.3-1.7,2.1-3.7,2-5.8
	c0-3.2-1.6-6.1-4.2-7.8c-4.3,2.8-5.5,8.5-2.7,12.8c0.2,0.3,0.4,0.6,0.6,0.8l0,0c2.4,2.8,2.1,7-0.7,9.4c0,0,0,0-0.1,0l0,0
	c-1,0.8-1.6,2.1-1.6,3.4c0,2.4,2,4.4,4.5,4.4c2.4,0,4.4-1.9,4.5-4.3c0,0,0,0,0-0.1C23,25.2,22.4,24,21.4,23.1z"/>
<ellipse class="st0" cx="18.5" cy="41" rx="4.5" ry="4.5"/>
<circle class="st0" cx="33.6" cy="25.5" r="3.4"/>
<circle class="st0" cx="26.9" cy="33.1" r="3.9"/>
<circle class="st0" cx="26.9" cy="17.8" r="3.9"/>
</svg>
